<svg width="39" height="42" viewBox="0 0 39 42" fill="none" xmlns="http://www.w3.org/2000/svg">
<path d="M4.875 32.1552C4.875 32.8626 5.42039 33.4414 6.09375 33.4414H36.5625C37.9107 33.4414 39 34.5909 39 36.0138C39 37.4367 37.9107 38.5862 36.5625 38.5862H6.09375C2.72848 38.5862 0 35.7083 0 32.1552V5.1448C0 3.72435 1.09154 2.57239 2.4375 2.57239C3.78346 2.57239 4.875 3.72435 4.875 5.1448V32.1552ZM26.0965 22.3961C25.1443 23.4009 23.6057 23.4009 22.6535 22.3961L18.2812 17.7898L11.4715 24.9685C10.5193 25.9733 8.98066 25.9733 8.02852 24.9685C7.07484 23.9636 7.07484 22.3398 8.02852 21.335L16.5598 12.3315C17.5119 11.3266 19.0506 11.3266 20.0027 12.3315L24.375 16.9377L32.4035 8.47287C33.3557 7.46641 34.8943 7.46641 35.8465 8.47287C36.7986 9.47772 36.7986 11.1016 35.8465 12.1064L26.0965 22.3961Z" fill="white"/>
</svg>
