<svg width="39" height="42" viewBox="0 0 39 42" fill="none" xmlns="http://www.w3.org/2000/svg">
<g clip-path="url(#clip0_68_89)">
<path d="M36.5625 28.2966H26.3936L22.9468 31.9341C22.0289 32.9028 20.8025 33.4414 19.5 33.4414C18.1975 33.4414 16.9741 32.9064 16.0532 31.9341L12.6064 28.2966H2.4375C1.09154 28.2966 0 29.4485 0 30.869V38.5863C0 40.0067 1.09154 41.1587 2.4375 41.1587H36.5625C37.9085 41.1587 39 40.0067 39 38.5863V30.869C39 29.4461 37.9107 28.2966 36.5625 28.2966ZM32.9062 36.6569C31.9008 36.6569 31.0781 35.7888 31.0781 34.7276C31.0781 33.6665 31.9008 32.7983 32.9062 32.7983C33.9117 32.7983 34.7344 33.6665 34.7344 34.7276C34.7344 35.7888 33.9117 36.6569 32.9062 36.6569ZM17.7785 30.1134C18.2508 30.6198 18.8754 30.869 19.5 30.869C20.1246 30.869 20.7477 30.6178 21.223 30.1154L30.973 19.8257C31.9244 18.8208 31.9244 17.193 30.973 16.1881C30.0209 15.1833 28.4776 15.1833 27.5262 16.1881L21.9375 22.0906V2.57242C21.9375 1.15196 20.846 0 19.5 0C18.1518 0 17.0625 1.15196 17.0625 2.57242V22.0906L11.4715 16.1901C10.5201 15.1853 8.97686 15.1853 8.02471 16.1901C7.07332 17.195 7.07332 18.8229 8.02471 19.8277L17.7785 30.1134Z" fill="white"/>
</g>
<defs>
<clipPath id="clip0_68_89">
<rect width="39" height="41.1587" fill="white"/>
</clipPath>
</defs>
</svg>
