<svg width="28" height="28" viewBox="0 0 28 28" fill="none" xmlns="http://www.w3.org/2000/svg">
<path d="M19.8318 1.02514C21.1988 -0.341713 23.4187 -0.341713 24.7857 1.02514L26.94 3.18111C28.307 4.54752 28.307 6.76528 26.94 8.13224L24.2936 10.7787L17.1854 3.67157L19.8318 1.02514ZM23.0579 12.0144L10.3069 24.7599C9.73821 25.3286 9.03286 25.7496 8.2619 25.9738L1.68244 27.9094C1.22205 28.0461 0.72393 27.9204 0.384377 27.5321C0.044813 27.2423 -0.0821393 26.7448 0.0533537 26.28L1.98864 19.7022C2.2161 18.9312 2.6333 18.2259 3.2025 17.6572L15.9497 4.9084L23.0579 12.0144Z" fill="white"/>
</svg>
