<svg width="29" height="25" viewBox="0 0 29 25" fill="none" xmlns="http://www.w3.org/2000/svg">
<path d="M24.9503 0H3.52171C1.59872 0 0 1.59877 0 3.57143V21.4286C0 23.4012 1.59877 25 3.52121 25H24.9498C26.9224 25 28.5212 23.4012 28.5212 21.4286V3.57143C28.5217 1.59877 26.9704 0 24.9503 0ZM6.20028 3.57143C7.67964 3.57143 8.87886 4.77065 8.87886 6.25C8.87886 7.72935 7.7293 8.92857 6.20028 8.92857C4.67127 8.92857 3.52171 7.72935 3.52171 6.25C3.52171 4.77065 4.7706 3.57143 6.20028 3.57143ZM24.8945 20.9598C24.7382 21.25 24.4369 21.4286 24.1077 21.4286H4.57696C4.24097 21.4286 3.93354 21.24 3.7812 20.9403C3.62886 20.6408 3.65759 20.2813 3.85564 20.0095L7.76189 14.6523C7.93019 14.4196 8.19805 14.2857 8.48265 14.2857C8.76725 14.2857 9.036 14.4219 9.20419 14.6526L11.0156 17.1364L16.222 9.37411C16.39 9.07924 16.669 8.92857 16.9648 8.92857C17.2606 8.92857 17.5424 9.07768 17.7075 9.32617L24.8504 20.0405C25.034 20.3125 25.0507 20.6641 24.8945 20.9598Z" fill="white"/>
</svg>
