<svg width="50" height="50" viewBox="0 0 50 50" fill="none" xmlns="http://www.w3.org/2000/svg">
<circle cx="25" cy="25" r="25" fill="white"/>
<path d="M19.7812 36.25H16.3906C15.4914 36.25 14.629 35.8928 13.9931 35.2569C13.3572 34.621 13 33.7586 13 32.8594V29.4688M13 19.7812V16.3906C13 15.4914 13.3572 14.629 13.9931 13.9931C14.629 13.3572 15.4914 13 16.3906 13H19.7812M29.4688 36.25H32.8594C33.7586 36.25 34.621 35.8928 35.2569 35.2569C35.8928 34.621 36.25 33.7586 36.25 32.8594V29.4688M36.25 19.7812V16.3906C36.25 15.4914 35.8928 14.629 35.2569 13.9931C34.621 13.3572 33.7586 13 32.8594 13H29.4688" stroke="black" stroke-width="4.34554" stroke-linecap="round" stroke-linejoin="round"/>
</svg>
