<svg width="35" height="37" viewBox="0 0 35 37" fill="none" xmlns="http://www.w3.org/2000/svg">
<path d="M11.4062 33.988H7.14062C6.00931 33.988 4.92433 33.5137 4.12437 32.6695C3.32441 31.8253 2.875 30.6802 2.875 29.4863V24.9846M2.875 12.1225V7.62075C2.875 6.42682 3.32441 5.28178 4.12437 4.43754C4.92433 3.59331 6.00931 3.11902 7.14062 3.11902H11.4062M23.5937 33.988H27.8594C28.9907 33.988 30.0757 33.5137 30.8756 32.6695C31.6756 31.8253 32.125 30.6802 32.125 29.4863V24.9846M32.125 12.1225V7.62075C32.125 6.42682 31.6756 5.28178 30.8756 4.43754C30.0757 3.59331 28.9907 3.11902 27.8594 3.11902H23.5937" stroke="white" stroke-width="5.46696" stroke-linecap="round" stroke-linejoin="round"/>
</svg>
