<svg width="250" height="250" viewBox="0 0 250 250" fill="none" xmlns="http://www.w3.org/2000/svg">
<path d="M31.25 205.357C31.25 210.268 34.7461 214.286 39.0625 214.286H234.375C243.018 214.286 250 222.266 250 232.143C250 242.02 243.018 250 234.375 250H39.0625C17.4902 250 0 230.022 0 205.357V17.8571C0 7.99665 6.99707 0 15.625 0C24.2529 0 31.25 7.99665 31.25 17.8571V205.357ZM167.285 137.612C161.182 144.587 151.318 144.587 145.215 137.612L117.188 105.636L73.5352 155.469C67.4316 162.444 57.5684 162.444 51.4648 155.469C45.3516 148.493 45.3516 137.221 51.4648 130.246L106.152 67.7455C112.256 60.7701 122.119 60.7701 128.223 67.7455L156.25 99.721L207.715 40.9598C213.818 33.9732 223.682 33.9732 229.785 40.9598C235.889 47.9353 235.889 59.2076 229.785 66.183L167.285 137.612Z" fill="black"/>
</svg>
