<svg width="27" height="23" viewBox="0 0 27 23" fill="none" xmlns="http://www.w3.org/2000/svg">
<path d="M4.98456 21.5121L4.96543 21.5103H4.94621H1.64874C0.924736 21.5103 0.396834 20.9958 0.396834 20.3771V9.4014C0.396834 8.81975 0.932478 8.26823 1.64874 8.26823H4.94621C5.6702 8.26823 6.19811 8.78265 6.19811 9.4014V20.4214C6.19811 21.0944 5.66605 21.5783 4.98456 21.5121ZM16.0226 6.87886L15.6401 7.487H16.3585H23.9067C25.0715 7.487 25.9829 8.38325 25.9829 9.4506C25.9829 10.4717 25.145 11.3298 24.0502 11.4003L23.1981 11.4551L23.7894 12.0711C24.1289 12.4248 24.3342 12.8837 24.3342 13.3863C24.3342 14.3279 23.6189 15.1365 22.6453 15.3087L22.0596 15.4124L22.3802 15.9134C22.5728 16.2144 22.6855 16.5573 22.6855 16.9235C22.6855 17.7838 22.0958 18.5189 21.2515 18.7815L20.8984 18.8914L20.9831 19.2514C21.0171 19.3959 21.0367 19.5375 21.0367 19.6795C21.0367 20.7473 20.1253 21.6431 18.9605 21.6431H15.9361C14.2345 21.6431 12.5796 21.1171 11.2235 20.1424L11.2229 20.142L9.46388 18.883C8.94158 18.5092 8.64059 17.9276 8.64051 17.3173C8.64051 17.3172 8.64051 17.3172 8.64051 17.3171L8.64565 9.44865C8.64565 9.44824 8.64566 9.44783 8.64566 9.44742C8.65028 8.87707 8.90549 8.31075 9.41232 7.92084C9.41253 7.92068 9.41273 7.92052 9.41294 7.92035L10.2513 7.2819L10.2518 7.28158C12.4322 5.61656 13.0554 3.80152 13.5183 2.45357C13.5239 2.43717 13.5295 2.42083 13.5351 2.40457C13.7721 1.71471 13.9501 1.22681 14.2361 0.894578C14.4904 0.599182 14.8611 0.396834 15.5857 0.396834C16.9564 0.396834 17.7394 1.41811 17.7403 2.36669C17.7402 2.67021 17.6075 3.33299 17.3131 4.17753C17.0232 5.00891 16.5907 5.97574 16.0226 6.87886Z" stroke="black" stroke-width="0.793667"/>
</svg>
