<svg width="27" height="23" viewBox="0 0 27 23" fill="none" xmlns="http://www.w3.org/2000/svg">
<path d="M23.7906 9.96768L23.1991 10.5831L24.0509 10.6386C25.145 10.71 25.9829 11.5682 25.9829 12.5888C25.9829 13.6566 25.0715 14.5524 23.9067 14.5524H16.356H15.6376L16.02 15.1605C16.5879 16.0634 17.0204 17.0302 17.3103 17.8615C17.6049 18.7064 17.7377 19.3695 17.7377 19.6731C17.7377 20.622 16.9543 21.6431 15.5857 21.6431C14.8615 21.6431 14.4914 21.4409 14.2375 21.1453C13.9518 20.8127 13.774 20.3237 13.5371 19.6312L13.5195 19.5797C13.0571 18.2268 12.4337 16.4025 10.2548 14.7152L10.2526 14.7135L9.41276 14.0725L9.41272 14.0725C8.90684 13.6864 8.64931 13.118 8.64604 12.5488C8.64604 12.5485 8.64604 12.5482 8.64604 12.5479L8.64051 4.67856C8.64051 4.67848 8.64051 4.67839 8.64051 4.67831C8.6406 4.11592 8.93787 3.53099 9.46371 3.15504L9.46388 3.15493L11.2229 1.89599L11.2229 1.89597C12.581 0.92372 14.2348 0.396834 15.9366 0.396834H18.9605C20.1244 0.396834 21.0367 1.29275 21.0367 2.36044C21.0367 2.50577 21.0152 2.63835 20.9899 2.72033L20.8733 3.09889L21.2516 3.21618C22.0956 3.47782 22.6855 4.21554 22.6855 5.07213C22.6855 5.48442 22.5702 5.8284 22.3809 6.12189L22.0579 6.62272L22.6446 6.72761C23.6204 6.90208 24.3342 7.70859 24.3342 8.65362C24.3342 9.15645 24.1283 9.6162 23.7906 9.96768ZM1.64874 0.398802H4.94621C5.65639 0.398802 6.19811 0.942626 6.19811 1.57576V12.5077C6.19811 13.0893 5.66246 13.6408 4.94621 13.6408H1.64874C0.924736 13.6408 0.396834 13.1264 0.396834 12.5077V1.53197C0.396834 0.949904 0.932393 0.398802 1.64874 0.398802Z" stroke="black" stroke-width="0.793667"/>
</svg>
